# xmcd
#
# Track frame offsets:
#	150
#	13431
#	27658
#	42297
#	57864
#	74084
#	90094
#	105032
#	118573
#	136095
#	151261
#	165557
#	182985
#	195631
#	210395
#	221587
#	235853
#	253904
#	272449
#	285626
#	302884
#	319074
#	335394
#
# Disc length: 4694 seconds
#
# Revision: 0
# Processed by: cddbd v1.5.2PL0 Copyright (c) Steve Scherf et al.
# Submitted via: EasyCDDAExtractor 12.0.1.1
#
DISCID=46125417
DTITLE=Bellamy Brothers - Collection Disc 1
DYEAR=2000
DGENRE=Country
TTITLE0=Beautiful Sunday
TTITLE1=Big Hair
TTITLE2=Bubba
TTITLE3=Bye Bye Love
TTITLE4=Catahoula
TTITLE5=Crazy From The Heart
TTITLE6=For All the Wrong Reasons
TTITLE7=Redneck Girl
TTITLE8=I knew the bride
TTITLE9=I Need More Of You
TTITLE10=If I said you had a beautiful
TTITLE11=I'll Fly Away
TTITLE12=Let Your Love Flow
TTITLE13=Lovers Live Longer
TTITLE14=Maria
TTITLE15=Oh Faithful
TTITLE16=Old Hippy
TTITLE17=Satin Sheets
TTITLE18=Slippin' Away
TTITLE19=Some Broken Hearts
TTITLE20=The Closer You Get
TTITLE21=Crossfire
TTITLE22=Vertical Expression
EXTD=
EXTT0=
EXTT1=
EXTT2=
EXTT3=
EXTT4=
EXTT5=
EXTT6=
EXTT7=
EXTT8=
EXTT9=
EXTT10=
EXTT11=
EXTT12=
EXTT13=
EXTT14=
EXTT15=
EXTT16=
EXTT17=
EXTT18=
EXTT19=
EXTT20=
EXTT21=
EXTT22=
PLAYORDER=
